<?xml version="1.0" encoding="utf-8"?>
<!-- Generator: Adobe Illustrator 15.1.0, SVG Export Plug-In  -->
<!DOCTYPE svg PUBLIC "-//W3C//DTD SVG 1.1//EN" "http://www.w3.org/Graphics/SVG/1.1/DTD/svg11.dtd" [
	<!ENTITY ns_flows "http://ns.adobe.com/Flows/1.0/">
]>
<svg version="1.1"
	 xmlns="http://www.w3.org/2000/svg" xmlns:xlink="http://www.w3.org/1999/xlink" xmlns:a="http://ns.adobe.com/AdobeSVGViewerExtensions/3.0/"
	 x="0px" y="0px" width="601px" height="566px" viewBox="-0.521 -0.884 601 566" enable-background="new -0.521 -0.884 601 566"
	 xml:space="preserve">
<defs>
</defs>
<path fill="#CCCCCC" d="M299.995,47.276l236.566,176.309L299.995,399.893L63.434,223.585L299.995,47.276 M299.995,0L0,223.585
	l299.995,223.582L600,223.585L299.995,0L299.995,0z"/>
<path fill="#CCCCCC" d="M299.995,79.693l193.071,143.892l-193.071,143.89l-193.066-143.89L299.995,79.693 M299.995,67.538
	L90.62,223.585l209.375,156.049l209.386-156.049L299.995,67.538L299.995,67.538z"/>
<path fill="#CCCCCC" d="M215.679,161.269c15.261,8.765,29.93,18.309,44.43,28.084c14.476,9.813,28.732,19.93,42.787,30.314
	c14.053,10.376,27.907,21.03,41.536,31.992c13.603,10.99,27.028,22.221,39.877,34.239c-15.259-8.751-29.938-18.293-44.438-28.074
	c-14.47-9.813-28.724-19.93-42.766-30.324c-14.055-10.386-27.908-21.042-41.536-32.001
	C241.968,184.506,228.54,173.277,215.679,161.269z"/>
<path fill="#CCCCCC" d="M331.469,273.614c1.797-3.858,4.195-6.901,6.745-9.733c2.58-2.798,5.381-5.292,8.39-7.511
	c3.003-2.231,6.206-4.182,9.633-5.827c3.455-1.609,7.072-3.006,11.292-3.581c-1.79,3.865-4.182,6.912-6.738,9.743
	c-2.58,2.798-5.381,5.288-8.396,7.5c-3.001,2.223-6.204,4.172-9.633,5.818C339.294,271.627,335.683,273.031,331.469,273.614z"/>
<path fill="#CCCCCC" d="M384.309,161.269c-12.855,12.008-26.281,23.237-39.891,34.229c-13.62,10.959-27.475,21.615-41.522,32.001
	c-14.055,10.394-28.298,20.511-42.78,30.324c-14.495,9.781-29.176,19.323-44.437,28.074c12.855-12.018,26.276-23.249,39.884-34.239
	c13.627-10.962,27.481-21.616,41.542-31.992c14.055-10.384,28.296-20.501,42.778-30.314
	C354.379,179.578,369.062,170.034,384.309,161.269z"/>
<path fill="#CCCCCC" d="M268.524,273.614c-4.212-0.583-7.825-1.987-11.284-3.591c-3.43-1.646-6.638-3.596-9.647-5.818
	c-3.008-2.212-5.814-4.701-8.389-7.5c-2.55-2.832-4.95-5.878-6.738-9.743c4.219,0.574,7.837,1.972,11.297,3.581
	c3.429,1.645,6.631,3.595,9.627,5.827c3.008,2.22,5.809,4.713,8.39,7.511C264.33,266.713,266.736,269.756,268.524,273.614z"/>
<path fill="#CCCCCC" d="M71.227,563.429H58.278l-31.312-35.694l-7.348,7.56v28.135H9.785v-79.692h9.834v41.303l37.918-41.303h12.058
	L34.376,521.34L71.227,563.429z"/>
<path fill="#CCCCCC" d="M142.216,563.429H90.338v-79.692h51.878v8.566h-42.038v23.218h40.983v8.57h-40.983v30.772h42.038V563.429z"
	/>
<path fill="#CCCCCC" d="M226.945,563.429h-11.417l-40.141-69.168v69.168h-9.144v-79.692h13.64l37.918,65.36v-65.36h9.144V563.429z"
	/>
<path fill="#CCCCCC" d="M255.52,563.429v-79.692h19.204c11.204,0,20.021,1.47,26.438,4.391c6.419,2.926,11.48,7.396,15.204,13.405
	c3.718,6.012,5.577,13.391,5.577,22.13c0,10.86-3.511,20.199-10.545,28.029c-7.032,7.83-19.191,11.737-36.467,11.737H255.52z
	 M265.361,492.094v62.981h10.254c12.591,0,21.741-2.66,27.443-7.985c5.715-5.32,8.578-13.184,8.578-23.589
	c0-9.866-2.894-17.571-8.679-23.104c-5.776-5.532-14.895-8.303-27.343-8.303H265.361z"/>
<path fill="#CCCCCC" d="M377.063,565.073c-11.317,0-20.197-3.653-26.653-10.978c-6.45-7.308-9.671-17.476-9.671-30.483
	c0-12.974,3.229-23.134,9.696-30.488c6.468-7.354,15.349-11.021,26.628-11.021c11.316,0,20.207,3.668,26.683,11.021
	c6.463,7.354,9.703,17.515,9.703,30.488c0,12.938-3.24,23.08-9.703,30.434C397.27,561.395,388.379,565.073,377.063,565.073z
	 M377.117,490.505c-8.251,0-14.663,2.89-19.247,8.68c-4.584,5.776-6.876,13.923-6.876,24.428c0,10.504,2.292,18.641,6.876,24.407
	c4.584,5.764,10.996,8.64,19.247,8.64c8.209,0,14.613-2.876,19.199-8.64c4.584-5.767,6.87-13.903,6.87-24.407
	c0-10.574-2.286-18.737-6.87-24.483C391.73,493.382,385.326,490.505,377.117,490.505z"/>
<path fill="#CCCCCC" d="M437.153,563.429v-79.692h19.199c11.209,0,20.021,1.47,26.438,4.391c6.418,2.926,11.487,7.396,15.211,13.405
	c3.717,6.012,5.576,13.391,5.576,22.13c0,10.86-3.518,20.199-10.55,28.029c-7.035,7.83-19.192,11.737-36.463,11.737H437.153z
	 M446.994,492.094v62.981h10.256c12.586,0,21.735-2.66,27.45-7.985c5.702-5.32,8.566-13.184,8.566-23.589
	c0-9.866-2.896-17.571-8.674-23.104c-5.783-5.532-14.901-8.303-27.343-8.303H446.994z"/>
<path fill="#CCCCCC" d="M558.691,565.073c-11.317,0-20.197-3.653-26.647-10.978c-6.448-7.308-9.677-17.476-9.677-30.483
	c0-12.974,3.233-23.134,9.697-30.488c6.474-7.354,15.347-11.021,26.627-11.021c11.321,0,20.215,3.668,26.684,11.021
	c6.467,7.354,9.702,17.515,9.702,30.488c0,12.938-3.235,23.08-9.702,30.434C578.906,561.395,570.013,565.073,558.691,565.073z
	 M558.754,490.505c-8.252,0-14.671,2.89-19.255,8.68c-4.584,5.776-6.877,13.923-6.877,24.428c0,10.504,2.293,18.641,6.877,24.407
	c4.584,5.764,11.003,8.64,19.255,8.64c8.206,0,14.607-2.876,19.191-8.64c4.584-5.767,6.876-13.903,6.876-24.407
	c0-10.574-2.292-18.737-6.876-24.483C573.361,493.382,566.96,490.505,558.754,490.505z"/>
</svg>
