<?xml version="1.0" encoding="utf-8"?>
<!-- Generator: Adobe Illustrator 15.1.0, SVG Export Plug-In  -->
<!DOCTYPE svg PUBLIC "-//W3C//DTD SVG 1.1//EN" "http://www.w3.org/Graphics/SVG/1.1/DTD/svg11.dtd" [
	<!ENTITY ns_flows "http://ns.adobe.com/Flows/1.0/">
]>
<svg version="1.1"
	xmlns="http://www.w3.org/2000/svg" xmlns:xlink="http://www.w3.org/1999/xlink" xmlns:a="http://ns.adobe.com/AdobeSVGViewerExtensions/3.0/"
	x="0px" y="0px" width="888px" height="997px" viewBox="-0.585 -0.015 888 997" enable-background="new -0.585 -0.015 888 997"
	xml:space="preserve">
<defs>
</defs>
<linearGradient id="SVGID_1_" gradientUnits="userSpaceOnUse" x1="0" y1="498.1577" x2="886.5483" y2="498.1577">
	<stop  offset="0" style="stop-color:#784296"/>
	<stop  offset="0.4848" style="stop-color:#E83A37"/>
	<stop  offset="1" style="stop-color:#F29438"/>
</linearGradient>
<path fill="url(#SVGID_1_)" d="M882.465,201.182c2.628-2.511,6.778-7.399,1.632-7.897c-5.146-0.504-13.543-0.125-22.82-10.285
	c-9.277-10.158-19.323-18.18-30.852-27.965c-11.529-9.775-23.441-23.069-28.081-31.35c-4.647-8.271-8.655-13.418-9.288-15.794
	c-0.622-2.385-2.635-8.281-2.375-11.042c0.249-2.755,2.76-3.63,3.258-6.64c0.498-3.01,0.622-5.396,1.506-7.026
	c0.871-1.63,0.373-5.387-0.374-7.772c0,0,0.125-8.276,1.121-12.916c1.007-4.643,11.539-17.429,7.149-33.856
	c-4.39-16.426-16.054-27.339-24.448-28.214c-8.407-0.882-40.63-0.375-60.943,1.38c-20.313,1.752-38.375,8.275-44.014,13.418
	c-5.646,5.137-6.58,8.902-6.58,8.902s-22.965,16.292-19.011,53.58c3.948,37.287,8.89,47.409,13.33,55.066
	c4.443,7.653,11.857,15.804,12.595,19.752c0.743,3.949,1.974,19.265-7.409,25.436c-9.382,6.173-30.616,10.861-42.466,7.653
	c-11.856-3.21-16.298,3.208-18.276,5.185c-1.976,1.976-8.392,5.185-18.522,2.717c-10.12-2.472-20.241-5.434-17.279,0.494
	c2.961,5.927,8.146,9.627,14.073,12.348c5.93,2.712,19.753,2.962,30.372,0.244c10.619-2.716,24.692-6.665,24.692-6.665
	s-3.631,4.686-3.851,8.655c-0.222,3.969-0.222,5.621-4.521,8.597c-4.293,2.977-9.252,2.423-10.245,11.792
	c-0.992,9.369-7.494,24.138-10.581,32.183c-3.085,8.045-10.25,22.814-12.343,25.786c0,0-6.944-0.881-11.134,0.777
	c-4.188,1.649-4.736,3.632-8.596,9.143c-3.857,5.511-8.265,11.904-11.903,12.786c-3.638,0.881-11.902,0.996-16.091,3.863
	c-4.188,2.865-14.33,9.478-4.41,16.967c0,0-15.76,10.691-26.342,19.95c0,0-19.617-3.747-25.899,3.637
	c-5.182-6.614-13.553-2.425-15.983-0.44c-0.29,0.244-0.771,0.616-1.35,1.116c-0.82-0.729-2.156-1.39-2.899-1.39
	c-1.185,0-2.134-1.658-1.659-3.556c0.475-1.888-2.835-3.786-4.025-4.734c-1.184-0.944-4.025-0.469-4.969,0.949
	c-0.949,1.418-3.551-0.474-4.26-1.184c-0.715-0.709-16.81-12.31-21.544-14.438c-4.734-2.127-40.245-22.255-42.846-23.912
	c-2.607-1.658-9.708-4.735-11.127-5.679c-0.92-0.617-2.305-0.791-3.379-0.608L184.095,192.096c0.448-2.535-4.17-5.559-6.595-7.375
	c-2.434-1.826-12.392-8.841-15.641-9.243c-1.734-0.222-3.287,1.216-4.395,2.625L42.49,116.564c0.872-2.1,1.126-4.822-0.791-6.197
	c-2.132-1.519-20.515-12.388-23.668-14.017c-3.147-1.625-11.879-3.556-14.725,2.847c0,0-5.588,6.396-2.233,10.36
	c3.349,3.958,9.545,8.328,14.117,10.973c4.572,2.637,9.345,5.483,9.345,5.483c2.866,1.649,5.659,3.181,8.438,1.936l120.333,69.112
	c-0.058,0.209-0.121,0.487-0.188,0.661c-1.312,3.958,6.1,5.587,12.498,8.53c5.612,2.587,5.29,2.823,6.699,2.021
	c18.67,10.868,140.229,81.589,165.344,95.131c27.225,14.679,65.339,41.902,76.938,47.346c11.602,5.443,44.981,22.015,44.981,22.015
	s-0.685,1.169,2.324,3.369c-0.321,1.557-0.542,3.158-0.542,4.832c0,14.658,6.174,15.87,6.174,15.87s1.433,10.145,10.575,16.864
	c9.148,6.719,10.359,7.935,14.002,7.379c0,0,9.144,8.491,18.292,6.834c9.146-1.649,14.438-13.667,12.674-21.048
	c0,0,0.222-0.063,0.303-0.086c8.976,5.51,21.605,13.089,32.107,19.357c-0.566,3.991,0.622,8.029,4.509,9.828
	c5.73,2.645,9.263-1.324,9.263-1.324s-5.182,11.789-2.093,18.076c3.085,6.277,8.705,12.786,16.198,16.753
	c7.496,3.967,16.202,9.92,28.216,7.379c0,0-9.809,30.42-14.989,58.855c0,0-12.343,10.14-3.746,17.299c0,0-0.552,6.509-2.426,10.361
	c-1.873,3.862-1.321,11.688,12.125,8.051c0,0-14.492,45.764-27.98,144.086c-13.49,98.324-21.65,199.426-21.65,204.039
	c0,4.617,11.534,8.014,14.729,8.67c3.191,0.662,6.302,1.975,8.185,5.645c0.638,1.25,1.908,2.781,3.433,4.371
	c-2.584,1.441-7.04,4.02-8.799,5.559c-2.524,2.209-7.894,4.416-11.207,5.52c-3.317,1.111-7.262,4.582-7.578,6.789
	c-0.314,2.211-1.733,3.793-3.315,5.369c-1.576,1.576-4.261,4.424-3.158,6.791c1.107,2.367,2.688,2.051,3.317,4.418
	c0.632,2.367,3.156,1.58,4.104,2.998c0.945,1.418,5.369,7.102,11.996,5.838c6.627-1.26,7.891-4.889,10.575-5.994
	c2.684-1.107,9.632,2.529,14.209-1.107c4.576-3.631,9.157-8.684,14.835-10.104c4.965-1.24,11.65-3.967,18.829-9.117
	c-0.054,5.068-0.124,12.311-0.124,16.004c0,6.023-1.035,13.074,9.496,15.049c10.533,1.979,32.261,1.979,36.587,0.941
	c4.324-1.033,12.978-1.791,12.978-1.791s7.807,9.125,10.815,10.631c3.01,1.502,18.435-3.012,23.701-5.926
	c5.268-2.914,10.34-9.219,12.038-9.689c1.691-0.469,9.215,0.098,14.294-0.373c5.081-0.469,11.189-2.348,14.014-3.852
	c2.818-1.506,2.914-3.389,2.914-3.389s3.479,2.064,6.586-1.602c0,0,0.277,1.037,1.313,1.691c1.036,0.662,6.393,0.941,8.559,0
	c2.165-0.938,1.697-3.285,3.862-4.418c2.156-1.129,4.321-1.602,6.67-1.975c2.356-0.373,6.019-3.479,7.331-6.393
	c1.324-2.916,2.453-4.891,2.637-8.281c0,0,5.366-0.469,8.089-3.85c2.732-3.391,2.54-5.363,6.308-8.842
	c1.303-1.213,2.212-2.252,2.921-3.293c4.42-1.76,9.748-3.518,15.872-4.85c15.258-3.316,8.616-22.551,8.616-31.838
	s-4.64-90.205-4.64-154.543s0.48-173.558,0.48-173.558c2.128-16.331,0-35.499-7.092-56.796c-7.104-21.295-9.23-32.652-9.23-32.652
	s4.59-0.277,5.722-0.401c1.131-0.126,0.249-1.63-0.634-3.384c-0.871-1.759-6.641-11.54-7.521-15.172
	c-0.873-3.643-4.39-15.3-11.655-19.945c0,0,3.509,0.131,9.527-0.372c6.02-0.5,14.539-3.384,17.682-5.267
	c3.134-1.883,3.384-2.881,3.134-5.516c-0.248-2.636,2.762-11.913,4.017-18.56c1.246-6.648,7.14-30.597,7.14-48.28
	c0-17.678,1.256-23.696,0.508-28.216c-0.757-4.509-4.391-10.154-4.391-10.154s5.512-8.649,7.775-12.666
	c2.25-4.011,5.893-12.915,7.273-13.417c1.38-0.5,4.39-7.276,6.641-12.164c2.263-4.888,4.266-10.782,4.765-12.915
	c0.508-2.132,0.383-1.758-2.003-7.02c-2.388-5.271-8.406-18.564-11.788-26.96c-3.385-8.4-6.642-16.551-9.652-19.938
	c0,0,11.53-2.76,18.057-6.648C869.173,210.713,879.831,203.692,882.465,201.182 M155.86,180.533c0,0-79.179-43.833-107.371-59.475
	l108.309,57.979C156.257,179.847,155.86,180.533,155.86,180.533 M344.76,285.651c-32.292-17.893-132.609-73.505-162.396-90.085
	c0.303-0.594,0.862-1.247,1.323-2.376L378.06,301.286c-0.11,0.561-0.056,1.382,0.125,2.281
	C366.981,297.708,355.356,291.521,344.76,285.651 M622.051,376.005c1.322,14.548,2.424,22.264,2.424,22.264
	s-9.036,3.746-11.241,6.833c0,0-4.409,0.882-5.068,0c-0.662-0.882-3.417-3.527-6.174-2.316c-2.755,1.213-5.73-1.872-7.604-0.991
	c-1.874,0.882-5.622-1.653-12.784,1.653c-3.872,1.789-9.647,5.219-14.685,8.794c-7.906-4.715-16.09-9.469-22.311-13.054
	c0.019-0.009,0.052-0.027,0.071-0.038c3.748-2.865,11.353-6.502,15.1-6.834c3.746-0.33,12.455-4.738,15.099-14.769
	c0,0,4.3,4.409,5.733,5.953c1.434,1.542,4.743,1.321,6.942-0.11c2.206-1.434,10.031-6.063,13.446-9.369
	c3.417-3.307,7.825-9.039,11.794-12.344c3.968-3.307,10.36-12.234,11.794-15.872C624.587,345.805,620.719,361.456,622.051,376.005"
	/>
<path display="none" fill="none" stroke="#CCCCCC" stroke-width="3" stroke-miterlimit="10" d="M920.072,235.182
	c2.628-2.511,6.778-7.399,1.632-7.897c-5.146-0.504-13.543-0.125-22.82-10.285c-9.277-10.158-19.323-18.18-30.852-27.965
	c-11.529-9.775-23.441-23.069-28.081-31.35c-4.647-8.271-8.655-13.418-9.288-15.794c-0.622-2.385-2.635-8.281-2.375-11.042
	c0.249-2.755,2.76-3.63,3.258-6.64c0.498-3.01,0.622-5.396,1.506-7.026c0.871-1.63,0.373-5.387-0.374-7.772
	c0,0,0.125-8.276,1.121-12.916c1.007-4.643,11.539-17.429,7.149-33.856c-4.39-16.426-16.054-27.339-24.448-28.214
	c-8.407-0.882-40.63-0.375-60.943,1.38c-20.313,1.752-38.375,8.275-44.014,13.418c-5.646,5.137-6.58,8.902-6.58,8.902
	s-22.965,16.292-19.011,53.58c3.948,37.287,8.89,47.409,13.33,55.066c4.443,7.653,11.857,15.804,12.595,19.752
	c0.743,3.949,1.974,19.265-7.409,25.436c-9.382,6.173-30.616,10.861-42.466,7.653c-11.856-3.21-16.298,3.208-18.276,5.185
	c-1.976,1.976-8.392,5.185-18.522,2.717c-10.12-2.472-20.241-5.434-17.279,0.494c2.961,5.927,8.146,9.627,14.073,12.348
	c5.93,2.712,19.753,2.962,30.372,0.244c10.619-2.716,24.692-6.665,24.692-6.665s-3.631,4.686-3.851,8.655
	c-0.222,3.969-0.222,5.621-4.521,8.597c-4.293,2.977-9.252,2.423-10.245,11.792c-0.992,9.369-7.494,24.138-10.581,32.183
	c-3.085,8.045-10.25,22.814-12.343,25.786c0,0-6.944-0.881-11.134,0.777c-4.188,1.649-4.736,3.632-8.596,9.143
	c-3.857,5.511-8.265,11.904-11.903,12.786c-3.638,0.881-11.902,0.996-16.091,3.863c-4.188,2.865-14.33,9.478-4.41,16.967
	c0,0-15.76,10.691-26.342,19.95c0,0-19.617-3.747-25.899,3.637c-5.182-6.614-13.553-2.425-15.983-0.44
	c-0.29,0.244-0.771,0.616-1.35,1.116c-0.82-0.729-2.156-1.39-2.899-1.39c-1.185,0-2.134-1.658-1.659-3.556
	c0.475-1.888-2.835-3.786-4.025-4.734c-1.184-0.944-4.025-0.469-4.969,0.949c-0.949,1.418-3.551-0.474-4.26-1.184
	c-0.715-0.709-16.81-12.31-21.544-14.438c-4.734-2.127-40.245-22.255-42.846-23.912c-2.607-1.658-9.708-4.735-11.127-5.679
	c-0.92-0.617-2.305-0.791-3.379-0.608L221.702,226.096c0.448-2.535-4.17-5.559-6.595-7.375c-2.434-1.826-12.392-8.841-15.641-9.243
	c-1.734-0.222-3.287,1.216-4.395,2.625L80.096,150.564c0.872-2.1,1.126-4.822-0.791-6.197c-2.132-1.519-20.515-12.388-23.668-14.017
	c-3.147-1.625-11.879-3.556-14.725,2.847c0,0-5.588,6.396-2.233,10.36c3.349,3.958,9.545,8.328,14.117,10.973
	c4.572,2.637,9.345,5.483,9.345,5.483c2.866,1.649,5.659,3.181,8.438,1.936l120.333,69.112c-0.058,0.209-0.121,0.487-0.188,0.661
	c-1.312,3.958,6.1,5.587,12.498,8.53c5.612,2.587,5.29,2.823,6.699,2.021c18.67,10.868,140.229,81.589,165.344,95.131
	c27.225,14.679,65.34,41.902,76.938,47.346c11.602,5.443,44.981,22.015,44.981,22.015s-0.685,1.169,2.324,3.369
	c-0.321,1.557-0.542,3.158-0.542,4.832c0,14.658,6.174,15.87,6.174,15.87s1.433,10.145,10.575,16.864
	c9.148,6.719,10.359,7.935,14.002,7.379c0,0,9.144,8.491,18.292,6.834c9.146-1.649,14.438-13.667,12.674-21.048
	c0,0,0.222-0.063,0.303-0.086c8.976,5.51,21.605,13.089,32.107,19.357c-0.566,3.991,0.622,8.029,4.509,9.828
	c5.73,2.645,9.263-1.324,9.263-1.324s-5.182,11.789-2.093,18.076c3.085,6.277,8.705,12.786,16.198,16.753
	c7.496,3.967,16.202,9.92,28.216,7.379c0,0-9.809,30.42-14.989,58.855c0,0-12.343,10.14-3.746,17.299c0,0-0.552,6.509-2.426,10.361
	c-1.873,3.862-1.321,11.688,12.125,8.051c0,0-14.492,45.764-27.98,144.086c-13.49,98.324-21.65,199.426-21.65,204.039
	c0,4.617,11.534,8.014,14.729,8.67c3.191,0.662,6.302,1.975,8.185,5.645c0.638,1.25,1.908,2.781,3.433,4.371
	c-2.584,1.441-7.04,4.02-8.799,5.559c-2.524,2.209-7.894,4.416-11.207,5.52c-3.317,1.111-7.262,4.582-7.578,6.789
	c-0.314,2.211-1.733,3.793-3.315,5.369c-1.576,1.576-4.261,4.424-3.158,6.791c1.107,2.367,2.688,2.051,3.317,4.418
	c0.632,2.367,3.156,1.58,4.104,2.998c0.945,1.418,5.369,7.102,11.996,5.838c6.627-1.26,7.891-4.889,10.575-5.994
	c2.684-1.107,9.632,2.529,14.209-1.107c4.576-3.631,9.157-8.684,14.835-10.104c4.965-1.24,11.65-3.967,18.829-9.117
	c-0.054,5.068-0.124,12.311-0.124,16.004c0,6.023-1.035,13.074,9.496,15.049c10.533,1.979,32.261,1.979,36.587,0.941
	c4.324-1.033,12.978-1.791,12.978-1.791s7.807,9.125,10.815,10.631c3.01,1.502,18.435-3.012,23.701-5.926
	c5.268-2.914,10.34-9.219,12.038-9.689c1.691-0.469,9.215,0.098,14.294-0.373c5.081-0.469,11.189-2.348,14.014-3.852
	c2.818-1.506,2.914-3.389,2.914-3.389s3.479,2.064,6.586-1.602c0,0,0.277,1.037,1.313,1.691c1.036,0.662,6.393,0.941,8.559,0
	c2.165-0.938,1.697-3.285,3.862-4.418c2.156-1.129,4.321-1.602,6.67-1.975c2.356-0.373,6.019-3.479,7.331-6.393
	c1.324-2.916,2.453-4.891,2.637-8.281c0,0,5.366-0.469,8.089-3.85c2.732-3.391,2.54-5.363,6.308-8.842
	c1.303-1.213,2.212-2.252,2.921-3.293c4.42-1.76,9.748-3.518,15.872-4.85c15.258-3.316,8.616-22.551,8.616-31.838
	s-4.64-90.205-4.64-154.543s0.48-173.558,0.48-173.558c2.128-16.331,0-35.499-7.092-56.796c-7.104-21.295-9.23-32.652-9.23-32.652
	s4.59-0.277,5.722-0.401c1.131-0.126,0.249-1.63-0.634-3.384c-0.871-1.759-6.641-11.54-7.521-15.172
	c-0.873-3.643-4.39-15.3-11.655-19.945c0,0,3.509,0.131,9.527-0.372c6.02-0.5,14.539-3.384,17.682-5.267
	c3.134-1.883,3.384-2.881,3.134-5.516c-0.248-2.636,2.762-11.913,4.017-18.56c1.246-6.648,7.14-30.597,7.14-48.28
	c0-17.678,1.256-23.696,0.508-28.216c-0.757-4.509-4.391-10.154-4.391-10.154s5.512-8.649,7.775-12.666
	c2.25-4.011,5.893-12.915,7.273-13.417c1.38-0.5,4.39-7.276,6.641-12.164c2.263-4.888,4.266-10.782,4.765-12.915
	c0.508-2.132,0.383-1.758-2.003-7.02c-2.388-5.271-8.406-18.564-11.788-26.96c-3.385-8.4-6.642-16.551-9.652-19.938
	c0,0,11.53-2.76,18.057-6.648C906.78,244.713,917.437,237.692,920.072,235.182 M193.466,214.533c0,0-79.179-43.833-107.371-59.475
	l108.309,57.979C193.863,213.847,193.466,214.533,193.466,214.533 M382.367,319.651c-32.292-17.893-132.609-73.505-162.396-90.085
	c0.303-0.594,0.862-1.247,1.323-2.376l194.374,108.097c-0.11,0.561-0.056,1.382,0.125,2.281
	C404.587,331.708,392.962,325.521,382.367,319.651 M659.658,410.005c1.322,14.548,2.424,22.264,2.424,22.264
	s-9.036,3.746-11.241,6.833c0,0-4.409,0.882-5.068,0c-0.662-0.882-3.417-3.527-6.174-2.316c-2.755,1.213-5.73-1.872-7.604-0.991
	c-1.874,0.882-5.622-1.653-12.784,1.653c-3.872,1.789-9.647,5.219-14.685,8.794c-7.906-4.715-16.09-9.469-22.311-13.054
	c0.019-0.009,0.052-0.027,0.071-0.038c3.748-2.865,11.353-6.502,15.1-6.834c3.746-0.33,12.455-4.738,15.099-14.769
	c0,0,4.3,4.409,5.733,5.953c1.434,1.542,4.743,1.321,6.942-0.11c2.206-1.434,10.031-6.063,13.446-9.369
	c3.417-3.307,7.825-9.039,11.794-12.344c3.968-3.307,10.36-12.234,11.794-15.872C662.194,379.805,658.326,395.456,659.658,410.005"
	/>
</svg>
