<svg width="30" height="23" viewBox="0 0 30 23" fill="none" xmlns="http://www.w3.org/2000/svg">
<g id="&#229;&#137;&#163;">
<path id="Vector" d="M0 0C2.70178 1.54859 5.29876 3.23481 7.86581 4.96184C10.4286 6.69558 12.9525 8.48304 15.4407 10.3177C17.9287 12.1509 20.3814 14.0332 22.7942 15.97C25.2025 17.9117 27.5792 19.8959 29.854 22.0193C27.1525 20.4731 24.5538 18.7873 21.9867 17.0592C19.425 15.3254 16.9015 13.538 14.4155 11.7016C11.9272 9.86661 9.47473 7.98392 7.06206 6.0477C4.65416 4.10548 2.27689 2.12155 0 0Z" fill="white"/>
<path id="Vector_2" d="M20.4993 19.849C20.8174 19.1673 21.2419 18.6297 21.6934 18.1294C22.1501 17.635 22.646 17.1944 23.1787 16.8023C23.7104 16.4082 24.2774 16.0635 24.8842 15.7728C25.4958 15.4885 26.1362 15.2417 26.8833 15.1401C26.5664 15.823 26.1429 16.3613 25.6904 16.8615C25.2336 17.3559 24.7377 17.7958 24.204 18.1866C23.6727 18.5794 23.1056 18.9237 22.4986 19.2145C21.8846 19.4979 21.2453 19.746 20.4993 19.849Z" fill="white"/>
<path id="Vector_3" d="M29.854 0C27.5781 2.12155 25.2012 4.10548 22.7917 6.04753C20.3805 7.98375 17.9276 9.86643 15.4407 11.7014C12.9525 13.5378 10.4309 15.3253 7.86705 17.059C5.30088 18.7871 2.70178 20.473 0 22.0191C2.27583 19.8958 4.65186 17.9115 7.06099 15.9698C9.4735 14.033 11.9262 12.1507 14.4155 10.3175C16.9038 8.48286 19.425 6.69541 21.9889 4.96166C24.5552 3.23481 27.1547 1.54859 29.854 0Z" fill="white"/>
<path id="Vector_4" d="M9.35557 19.849C8.60988 19.746 7.97024 19.4979 7.35787 19.2145C6.75063 18.9237 6.18269 18.5792 5.64998 18.1866C5.11745 17.7958 4.62068 17.356 4.16481 16.8615C3.71336 16.3612 3.28847 15.823 2.97192 15.1401C3.71885 15.2416 4.35937 15.4885 4.97192 15.7728C5.57899 16.0635 6.14587 16.408 6.67627 16.8023C7.2088 17.1946 7.70469 17.635 8.16162 18.1294C8.61307 18.6297 9.03902 19.1673 9.35557 19.849Z" fill="white"/>
</g>
</svg>
